
Source: Skyfall 2012 720p BluRay x264-DAA Thanks!

Subs: Arabic, Brazilian, Dutch, English, Farsi-Persian, Hebrew, Hungarian, Indonesian, Malay, Norwegian, Portuguese, Swedish, Turkish, Vietnamese.

Sample and Screens included.

General
Complete name                            : Skyfall-720p MP4 AAC x264 BRRip 2012-CC.mp4
Format                                   : MPEG-4
Format profile                           : Base Media
Codec ID                                 : isom
File size                                : 3.44 GiB
Duration                                 : 2h 23mn
Overall bit rate mode                    : Variable
Overall bit rate                         : 3 442 Kbps
Encoded date                             : UTC 2013-02-01 07:38:26

Video
ID                                       : 1
Format                                   : AVC
Format/Info                              : Advanced Video Codec
Format profile                           : High@L4.1
Format settings, CABAC                   : Yes
Format settings, ReFrames                : 5 frames
Codec ID                                 : avc1
Codec ID/Info                            : Advanced Video Coding
Duration                                 : 2h 23mn
Bit rate                                 : 3 088 Kbps
Maximum bit rate                         : 20.5 Mbps
Width                                    : 1 280 pixels
Height                                   : 536 pixels
Display aspect ratio                     : 2.40:1
Frame rate mode                          : Variable
Frame rate                               : 23.976 fps
Minimum frame rate                       : 19.048 fps
Maximum frame rate                       : 24.390 fps
Color space                              : YUV
Chroma subsampling                       : 4:2:0
Bit depth                                : 8 bits
Scan type                                : Progressive
Bits/(Pixel*Frame)                       : 0.188
Stream size                              : 3.05 GiB (89%)
Writing library                          : x264 core 112

Audio
ID                                       : 2
Format                                   : AAC
Format/Info                              : Advanced Audio Codec
Format profile                           : LC
Codec ID                                 : 40
Duration                                 : 2h 23mn
Bit rate mode                            : Variable
Bit rate                                 : 384 Kbps
Maximum bit rate                         : 736 Kbps
Channel(s)                               : 6 channels
Channel positions                        : Front: L C R, Side: L R, LFE
Sampling rate                            : 48.0 KHz
Compression mode                         : Lossy
Delay relative to video                  : 83ms
Stream size                              : 393 MiB (11%)

Enjoy...

Coming soon: Apocalypse Hitler, Ikiru, Randsom and more..